<svg width="108" height="108" viewBox="0 0 108 108" fill="none" xmlns="http://www.w3.org/2000/svg">
<path d="M0 8.39233e-05C0.750937 10.9224 8.05781 87.6573 60.6677 93.0214C66.2913 93.6732 71.9402 94.0423 77.5934 94.2849L39.9009 56.5545C38.5826 55.2362 38.5826 53.0952 39.9009 51.7768C41.2193 50.4584 43.3561 50.4584 44.6744 51.7768L99.3579 106.515C101.334 108.494 104.541 108.494 106.517 106.515C108.494 104.536 108.494 101.328 106.517 99.3474L94.4789 87.2966C94.4494 78.4182 93.9452 69.5462 92.9264 60.7269C91.7789 49.4459 87.3429 40.2617 81 32.7608V54.0549L70.6894 23.0914C67.5485 20.7184 64.2115 18.5837 60.75 16.6684V33.7838L49.526 11.3106C28.0252 2.47016 5.53922 0.381882 0 8.39233e-05Z" fill="url(#paint0_linear)"/>
<defs>
<linearGradient id="paint0_linear" x1="0" y1="53.9996" x2="107.999" y2="53.9996" gradientUnits="userSpaceOnUse">
<stop stop-color="#34CBC9"/>
<stop offset="1" stop-color="#D02FCD"/>
</linearGradient>
</defs>
</svg>
