<svg width="108" height="108" viewBox="0 0 108 108" fill="none" xmlns="http://www.w3.org/2000/svg">
<path d="M104.625 81H13.5V16.875C13.5 15.0103 11.9897 13.5 10.125 13.5H3.375C1.51031 13.5 0 15.0103 0 16.875V87.75C0 91.4773 3.02273 94.5 6.75 94.5H104.625C106.49 94.5 108 92.9897 108 91.125V84.375C108 82.5103 106.49 81 104.625 81ZM97.875 20.25H72.9717C68.4619 20.25 66.2027 25.7027 69.3921 28.8921L76.2265 35.7265L60.75 51.2051L45.2735 35.7286C42.6368 33.0919 38.3632 33.0919 35.7286 35.7286L21.2393 50.2179C19.9209 51.5363 19.9209 53.673 21.2393 54.9914L26.0107 59.7628C27.3291 61.0812 29.4659 61.0812 30.7842 59.7628L40.5 50.0449L55.9765 65.5214C58.6132 68.1581 62.8868 68.1581 65.5214 65.5214L85.7714 45.2714L92.6058 52.1058C95.7952 55.2952 101.248 53.036 101.248 48.5262V23.625C101.25 21.7603 99.7397 20.25 97.875 20.25Z" fill="url(#paint0_linear)"/>
<defs>
<linearGradient id="paint0_linear" x1="54" y1="13.5" x2="54" y2="94.5" gradientUnits="userSpaceOnUse">
<stop stop-color="#34CBC9"/>
<stop offset="1" stop-color="#D02FCD"/>
</linearGradient>
</defs>
</svg>
