<svg width="24" height="27" viewBox="0 0 24 27" fill="none" xmlns="http://www.w3.org/2000/svg">
<path d="M0.857143 6.96094H23.1429C23.6163 6.96094 24 6.5832 24 6.11719V4.00781C24 3.5418 23.6163 3.16406 23.1429 3.16406H0.857143C0.383732 3.16406 0 3.5418 0 4.00781V6.11719C0 6.5832 0.383732 6.96094 0.857143 6.96094ZM0.857143 15.3984H23.1429C23.6163 15.3984 24 15.0207 24 14.5547V12.4453C24 11.9793 23.6163 11.6016 23.1429 11.6016H0.857143C0.383732 11.6016 0 11.9793 0 12.4453V14.5547C0 15.0207 0.383732 15.3984 0.857143 15.3984ZM0.857143 23.8359H23.1429C23.6163 23.8359 24 23.4582 24 22.9922V20.8828C24 20.4168 23.6163 20.0391 23.1429 20.0391H0.857143C0.383732 20.0391 0 20.4168 0 20.8828V22.9922C0 23.4582 0.383732 23.8359 0.857143 23.8359Z" fill="black"/>
</svg>
