<svg width="80" height="80" viewBox="0 0 80 80" fill="none" xmlns="http://www.w3.org/2000/svg">
<path d="M15 75H65V20H60V12.5C60 8.35781 56.6422 5 52.5 5H27.5C23.3578 5 20 8.35781 20 12.5V20H15V75ZM30 15H50V20H30V15ZM80 27.5V67.5C80 71.6422 76.6422 75 72.5 75H70V20H72.5C76.6422 20 80 23.3578 80 27.5ZM10 75H7.5C3.35781 75 0 71.6422 0 67.5V27.5C0 23.3578 3.35781 20 7.5 20H10V75ZM55 42.5V47.5C55 48.8808 53.8808 50 52.5 50H45V57.5C45 58.8808 43.8808 60 42.5 60H37.5C36.1192 60 35 58.8808 35 57.5V50H27.5C26.1192 50 25 48.8808 25 47.5V42.5C25 41.1192 26.1192 40 27.5 40H35V32.5C35 31.1192 36.1192 30 37.5 30H42.5C43.8808 30 45 31.1192 45 32.5V40H52.5C53.8808 40 55 41.1192 55 42.5Z" fill="white"/>
</svg>
