<svg width="108" height="108" viewBox="0 0 108 108" fill="none" xmlns="http://www.w3.org/2000/svg">
<path d="M96.4286 6.75H11.5714C5.18304 6.75 0 11.2852 0 16.875V91.125C0 96.7148 5.18304 101.25 11.5714 101.25H96.4286C102.817 101.25 108 96.7148 108 91.125V16.875C108 11.2852 102.817 6.75 96.4286 6.75ZM88.7143 59.9062C88.7143 61.2984 87.4125 62.4375 85.8214 62.4375H63.6429V81.8438C63.6429 83.2359 62.3411 84.375 60.75 84.375H47.25C45.6589 84.375 44.3571 83.2359 44.3571 81.8438V62.4375H22.1786C20.5875 62.4375 19.2857 61.2984 19.2857 59.9062V48.0938C19.2857 46.7016 20.5875 45.5625 22.1786 45.5625H44.3571V26.1562C44.3571 24.7641 45.6589 23.625 47.25 23.625H60.75C62.3411 23.625 63.6429 24.7641 63.6429 26.1562V45.5625H85.8214C87.4125 45.5625 88.7143 46.7016 88.7143 48.0938V59.9062Z" fill="url(#paint0_linear)"/>
<defs>
<linearGradient id="paint0_linear" x1="54" y1="6.75" x2="54" y2="101.25" gradientUnits="userSpaceOnUse">
<stop stop-color="#34CBC9"/>
<stop offset="1" stop-color="#D02FCD"/>
</linearGradient>
</defs>
</svg>
