<svg width="108" height="108" viewBox="0 0 108 108" fill="none" xmlns="http://www.w3.org/2000/svg">
<g clip-path="url(#clip0)">
<path d="M105.02 32.3157L57.9487 14.2383C55.3837 13.2532 52.6162 13.2532 50.0529 14.2383L2.98011 32.3157C-0.99227 33.8407 -0.99227 40.4072 2.98011 41.9323L11.1864 45.0837C9.38586 47.866 8.27886 51.26 8.16917 54.9767C6.54411 56.1411 5.39998 58.242 5.39998 60.75C5.39998 63.0239 6.35848 64.9371 7.73886 66.1606L3.43067 90.3931C3.05604 92.5004 4.33854 94.5 6.06486 94.5H15.5334C17.2614 94.5 18.5439 92.5004 18.1693 90.3931L13.8611 66.1606C15.2415 64.9371 16.2 63.0239 16.2 60.75C16.2 58.3095 15.1082 56.2676 13.5574 55.0821C13.6856 51.9139 14.9816 49.1126 17.0488 47.3365L50.0512 60.0118C51.5801 60.5982 54.513 61.3301 57.947 60.0118L105.02 41.9344C108.994 40.4072 108.994 33.8429 105.02 32.3157ZM59.5333 66.4643C54.7189 68.3121 50.6165 67.2912 48.465 66.4643L23.9929 57.0671L21.6 81C21.6 88.4567 36.1057 94.5 54 94.5C71.8942 94.5 86.4 88.4567 86.4 81L84.0071 57.065L59.5333 66.4643Z" fill="url(#paint0_linear)"/>
</g>
<defs>
<linearGradient id="paint0_linear" x1="54.0006" y1="13.4995" x2="54.0006" y2="94.5" gradientUnits="userSpaceOnUse">
<stop stop-color="#34CBC9"/>
<stop offset="1" stop-color="#D02FCD"/>
</linearGradient>
<clipPath id="clip0">
<rect width="108" height="108" fill="white"/>
</clipPath>
</defs>
</svg>
