<svg width="25" height="25" viewBox="0 0 25 25" fill="none" xmlns="http://www.w3.org/2000/svg">
<g clip-path="url(#clip0)">
<path d="M17.2386 12.5L24.3459 7.61377C25.218 7.01416 25.218 6.04199 24.3459 5.44189L22.7663 4.35596C21.8942 3.75635 20.4801 3.75635 19.6072 4.35596L12.5 9.24219L5.39276 4.35596C4.5206 3.75635 3.10653 3.75635 2.23366 4.35596L0.654119 5.44189C-0.21804 6.0415 -0.21804 7.01367 0.654119 7.61377L7.76136 12.5L0.654119 17.3862C-0.21804 17.9858 -0.21804 18.958 0.654119 19.5581L2.23366 20.644C3.10582 21.2437 4.5206 21.2437 5.39276 20.644L12.5 15.7578L19.6072 20.644C20.4794 21.2437 21.8942 21.2437 22.7663 20.644L24.3459 19.5581C25.218 18.9585 25.218 17.9863 24.3459 17.3862L17.2386 12.5Z" fill="#F32B2B"/>
</g>
<defs>
<clipPath id="clip0">
<rect width="25" height="25" fill="white"/>
</clipPath>
</defs>
</svg>
