<svg width="108" height="108" viewBox="0 0 108 108" fill="none" xmlns="http://www.w3.org/2000/svg">
<g clip-path="url(#clip0)">
<path d="M102.413 2.0462C101.363 -0.59052 98.3625 -0.695988 97.1063 1.79307C91.2938 13.1626 80.8875 20.2501 69 20.2501H54C34.125 20.2501 18 38.3907 18 60.7501C18 62.2267 18.15 63.6399 18.2812 65.0743C30.2437 55.4345 47.5125 47.2501 72 47.2501C73.65 47.2501 75 48.7689 75 50.6251C75 52.4814 73.65 54.0001 72 54.0001C24.8625 54.0001 4.875 86.5056 0.449995 98.7189C-0.787505 102.157 0.674995 106.081 3.73125 107.494C6.80625 108.928 10.2937 107.262 11.5687 103.845C11.85 103.085 15.4875 93.7407 25.05 84.7337C31.125 93.9939 42.675 102.832 57.8438 101.018C87.2813 98.6134 108 68.9134 108 32.5478C108 21.9587 105.975 10.9899 102.413 2.0462Z" fill="url(#paint0_linear)"/>
</g>
<defs>
<linearGradient id="paint0_linear" x1="54.0051" y1="-0.00488281" x2="54.0051" y2="108.01" gradientUnits="userSpaceOnUse">
<stop stop-color="#34CBC9"/>
<stop offset="1" stop-color="#D02FCD"/>
</linearGradient>
<clipPath id="clip0">
<rect width="108" height="108" fill="white"/>
</clipPath>
</defs>
</svg>
