<svg width="90" height="80" viewBox="0 0 90 80" fill="none" xmlns="http://www.w3.org/2000/svg">
<g clip-path="url(#clip0)">
<path d="M88.789 30C84.2515 30.0203 67.6937 30.9625 55.3765 42.9687C50.2015 47.5984 47.039 52.8594 45 57.7906C42.9609 52.8594 39.7984 47.5984 34.6234 42.9687C22.3062 30.9625 5.74843 30.0203 1.21093 30C0.521869 29.9969 -0.00625613 30.5312 -6.13571e-06 31.2219C0.0359314 35.5844 1.11562 50.9312 13.8703 62.3625C26.9984 75.1469 40 75 45 75C50 75 62.9984 75.1484 76.1297 62.3625C88.8859 50.9297 89.964 35.5844 90 31.2219C90.0062 30.5312 89.4781 29.9969 88.789 30ZM44.9969 47.2812C47 44.3359 49.3094 41.6906 51.8859 39.3875C54.8687 36.4797 58.0703 34.1844 61.3015 32.3281C58.7328 21.3125 53.2203 11.5391 46.1875 5.41874C45.5453 4.85936 44.4656 4.85936 43.8219 5.41874C36.7922 11.5344 31.2797 21.2984 28.7062 32.3047C31.889 34.1328 35.0344 36.3891 37.9594 39.2406C40.6218 41.6262 42.985 44.3262 44.9969 47.2812Z" fill="white"/>
</g>
<defs>
<clipPath id="clip0">
<rect width="90" height="80" fill="white"/>
</clipPath>
</defs>
</svg>
