<svg width="45" height="52" viewBox="0 0 45 52" fill="none" xmlns="http://www.w3.org/2000/svg">
<path d="M40.1786 3.21436H4.82143C2.1596 3.21436 0 5.37395 0 8.03578V43.3929C0 46.0548 2.1596 48.2144 4.82143 48.2144H40.1786C42.8404 48.2144 45 46.0548 45 43.3929V8.03578C45 5.37395 42.8404 3.21436 40.1786 3.21436ZM35.2667 19.1652C35.2868 19.4465 35.2868 19.7378 35.2868 20.019C35.2868 28.7277 28.6574 38.7623 16.5435 38.7623C12.8069 38.7623 9.34152 37.6775 6.42857 35.8092C6.96094 35.8695 7.47321 35.8896 8.01563 35.8896C11.0993 35.8896 13.9319 34.8449 16.192 33.0771C13.2991 33.0168 10.8683 31.1184 10.0346 28.5068C11.0491 28.6574 11.9632 28.6574 13.0078 28.3862C9.99442 27.7735 7.73437 25.1217 7.73437 21.9175V21.8371C8.60826 22.3293 9.63281 22.6306 10.7076 22.6708C9.804 22.0698 9.06326 21.2544 8.55148 20.2974C8.03969 19.3405 7.77278 18.2717 7.77455 17.1865C7.77455 15.961 8.09598 14.836 8.66853 13.8617C11.9129 17.8594 16.7846 20.4711 22.2489 20.7523C21.3147 16.2824 24.6596 12.6563 28.6775 12.6563C30.5759 12.6563 32.2835 13.4498 33.4888 14.7356C34.9754 14.4543 36.4018 13.9019 37.6674 13.1485C37.1752 14.6753 36.1406 15.961 34.7746 16.7746C36.1004 16.634 37.3862 16.2623 38.5714 15.7501C37.6775 17.0659 36.5525 18.2311 35.2667 19.1652Z" fill="white"/>
</svg>
