<svg width="79" height="108" viewBox="0 0 79 108" fill="none" xmlns="http://www.w3.org/2000/svg">
<path d="M57.3847 49.2328L27.7597 42.5672C24.3309 41.8078 21.9444 39.3398 21.9444 36.5977C21.9444 33.1594 25.5653 30.375 30.0364 30.375H48.2229C51.5694 30.375 54.8611 31.1555 57.6041 32.5898C59.2774 33.4547 61.5267 33.2438 62.9531 32.168L72.4989 24.9961C74.4465 23.5406 74.1722 21.1148 72.0052 19.8281C65.2847 15.7781 56.8909 13.5211 48.2778 13.5V3.375C48.2778 1.51875 46.3028 0 43.8889 0H35.1111C32.6972 0 30.7222 1.51875 30.7222 3.375V13.5H30.0364C12.5632 13.5 -1.48126 25.0383 0.137139 38.7281C1.28922 48.4523 10.9448 56.3625 23.1239 59.1047L51.2403 65.4328C54.6691 66.2133 57.0555 68.6602 57.0555 71.4023C57.0555 74.8406 53.4347 77.625 48.9635 77.625H30.7771C27.4305 77.625 24.1389 76.8445 21.3958 75.4102C19.7226 74.5453 17.4732 74.7562 16.0469 75.832L6.50103 83.0039C4.55346 84.4594 4.82776 86.8852 6.99478 88.1719C13.7153 92.2219 22.109 94.4789 30.7222 94.5V104.625C30.7222 106.481 32.6972 108 35.1111 108H43.8889C46.3028 108 48.2778 106.481 48.2778 104.625V94.4578C61.0604 94.268 73.0475 88.425 77.2719 79.1227C83.1694 66.1289 73.267 52.7977 57.3847 49.2328Z" fill="url(#paint0_linear)"/>
<defs>
<linearGradient id="paint0_linear" x1="39.5015" y1="0" x2="39.5015" y2="108" gradientUnits="userSpaceOnUse">
<stop stop-color="#34CBC9"/>
<stop offset="1" stop-color="#D02FCD"/>
</linearGradient>
</defs>
</svg>
