<svg width="45" height="52" viewBox="0 0 45 52" fill="none" xmlns="http://www.w3.org/2000/svg">
<g clip-path="url(#clip0)">
<path d="M22.51 14.1625C16.1216 14.1625 10.9687 19.3154 10.9687 25.7038C10.9687 32.0922 16.1216 37.2451 22.51 37.2451C28.8984 37.2451 34.0513 32.0922 34.0513 25.7038C34.0513 19.3154 28.8984 14.1625 22.51 14.1625ZM22.51 33.2072C18.3817 33.2072 15.0067 29.8422 15.0067 25.7038C15.0067 21.5654 18.3716 18.2005 22.51 18.2005C26.6484 18.2005 30.0134 21.5654 30.0134 25.7038C30.0134 29.8422 26.6384 33.2072 22.51 33.2072V33.2072ZM37.2154 13.6904C37.2154 15.1871 36.01 16.3824 34.5234 16.3824C33.0268 16.3824 31.8314 15.177 31.8314 13.6904C31.8314 12.2038 33.0368 10.9985 34.5234 10.9985C36.01 10.9985 37.2154 12.2038 37.2154 13.6904ZM44.8593 16.4226C44.6886 12.8165 43.8649 9.62235 41.2232 6.99065C38.5915 4.35896 35.3973 3.5353 31.7913 3.35449C28.0747 3.14355 16.9352 3.14355 13.2187 3.35449C9.62273 3.52525 6.42854 4.34891 3.7868 6.98061C1.14505 9.6123 0.331438 12.8065 0.150635 16.4125C-0.0603027 20.129 -0.0603027 31.2686 0.150635 34.9851C0.321394 38.5911 1.14505 41.7853 3.7868 44.417C6.42854 47.0487 9.61269 47.8723 13.2187 48.0531C16.9352 48.2641 28.0747 48.2641 31.7913 48.0531C35.3973 47.8824 38.5915 47.0587 41.2232 44.417C43.8549 41.7853 44.6785 38.5911 44.8593 34.9851C45.0703 31.2686 45.0703 20.1391 44.8593 16.4226V16.4226ZM40.058 38.9728C39.2745 40.9415 37.7578 42.4583 35.779 43.2518C32.8158 44.427 25.7846 44.1558 22.51 44.1558C19.2355 44.1558 12.1942 44.417 9.24104 43.2518C7.27229 42.4683 5.75555 40.9516 4.96202 38.9728C3.7868 36.0096 4.058 28.9784 4.058 25.7038C4.058 22.4293 3.79684 15.388 4.96202 12.4348C5.7455 10.4661 7.26224 8.94936 9.24104 8.15583C12.2042 6.98061 19.2355 7.25181 22.51 7.25181C25.7846 7.25181 32.8259 6.99065 35.779 8.15583C37.7477 8.93931 39.2645 10.4561 40.058 12.4348C41.2332 15.398 40.962 22.4293 40.962 25.7038C40.962 28.9784 41.2332 36.0197 40.058 38.9728Z" fill="white"/>
</g>
<defs>
<clipPath id="clip0">
<rect width="45" height="51.4286" fill="white"/>
</clipPath>
</defs>
</svg>
