<svg width="108" height="108" viewBox="0 0 108 108" fill="none" xmlns="http://www.w3.org/2000/svg">
<g clip-path="url(#clip0)">
<path d="M107.638 94.0489L92.2331 32.4278C91.4315 29.2236 88.7653 27.0024 85.7214 27.0024H73.0125C73.7655 24.8825 74.2528 22.6318 74.2528 20.2524C74.2528 9.06853 65.1867 0.00244141 54.0028 0.00244141C42.8189 0.00244141 33.7528 9.06853 33.7528 20.2524C33.7528 22.6318 34.2379 24.8825 34.9931 27.0024H22.2841C19.2403 27.0024 16.5719 29.2257 15.7724 32.4278L0.36346 94.0489C-1.39365 101.075 3.4558 108 10.132 108H97.8714C104.546 108 109.395 101.075 107.638 94.0489ZM54.0007 27.0003C50.2797 27.0003 47.2506 23.9713 47.2506 20.2503C47.2506 16.5294 50.2797 13.5003 54.0007 13.5003C57.7216 13.5003 60.7507 16.5294 60.7507 20.2503C60.7507 23.9713 57.7216 27.0003 54.0007 27.0003Z" fill="url(#paint0_linear)"/>
</g>
<defs>
<linearGradient id="paint0_linear" x1="54.0007" y1="0.00244141" x2="54.0007" y2="108" gradientUnits="userSpaceOnUse">
<stop stop-color="#34CBC9"/>
<stop offset="1" stop-color="#D02FCD"/>
</linearGradient>
<clipPath id="clip0">
<rect width="108" height="108" fill="white"/>
</clipPath>
</defs>
</svg>
